# xmcd
#
# Track frame offsets:
#	150
#	20154
#	33235
#	46602
#	61383
#	77126
#	93396
#	109135
#	131453
#	145297
#
# Disc length: 2256 seconds
#
# Revision: 0
# Processed by: cddbd v1.5.2PL0 Copyright (c) Steve Scherf et al.
# Submitted via: EZCDAudioConverter 1.3.4.1
#
DISCID=8008ce0a
DTITLE=Whitney Rose
DYEAR=2012
DGENRE=Country
TTITLE0=At the Do-Si-Do
TTITLE1=Chivalry is Dead
TTITLE2=You Only Love Me in the Summertime
TTITLE3=Daisies in Our Eyes
TTITLE4=At Least It Was Raining
TTITLE5=In the Afternoon
TTITLE6=One Third Above You
TTITLE7=Send You Away
TTITLE8=Crimson Red
TTITLE9=East Coast Woman Blues
EXTD=
EXTT0=
EXTT1=
EXTT2=
EXTT3=
EXTT4=
EXTT5=
EXTT6=
EXTT7=
EXTT8=
EXTT9=
PLAYORDER=
